# xmcd
#
# Track frame offsets:
#	150
#	20773
#	42377
#	61424
#	82605
#	99847
#	119209
#	137949
#	158409
#	175128
#	192785
#	209809
#	233333
#
# Disc length: 3377 seconds
# Revision: 0
# Processed by: cddbd v1.5.2PL0 Copyright (c) Steve Scherf et al.
# Submitted via: dBpowerAMP V12.0
#
DISCID=a90d2f0d
DTITLE=Richard Marx - Emotional Remains
DYEAR=2008
DGENRE=Rock
TTITLE0=From The Inside
TTITLE1=Better or Worse
TTITLE2=Part of me
TTITLE3=Through my Vein
TTITLE4=Save me
TTITLE5=Come Running
TTITLE6=Flame in Your Fire
TTITLE7=When November Falls
TTITLE8=Take You Back
TTITLE9=Over my Head
TTITLE10=Done to me
TTITLE11=Never Take me Dancing
TTITLE12=Should've Known Better 2009
EXTD=
EXTT0=
EXTT1=
EXTT2=
EXTT3=
EXTT4=
EXTT5=
EXTT6=
EXTT7=
EXTT8=
EXTT9=
EXTT10=
EXTT11=
EXTT12=
PLAYORDER=
